<svg xmlns="http://www.w3.org/2000/svg" width="15.693" height="15" viewBox="0 0 15.693 15">
    <g transform="translate(-277.35 -15.795)">
        <path
            d="M278.545,30.84v.65q0,3.986,0,7.973c0,1.342.209,1.542,1.57,1.555.94.009,1.886-.032,2.817.066a2.2,2.2,0,0,1,1.2.589,1.311,1.311,0,0,0,2.113.014,2.183,2.183,0,0,1,1.194-.6c.993-.1,2-.051,3-.071,1.154-.023,1.4-.265,1.4-1.416.007-2.7,0-5.4,0-8.1v-.651c.955-.19,1.193-.012,1.193.86q0,5.06,0,10.12c0,.819-.149.968-.958.97-1.308,0-2.617.02-3.925-.008a2.344,2.344,0,0,0-1.48.458c-1.323.938-1.608.9-2.97.033a3.116,3.116,0,0,0-1.462-.461c-1.346-.062-2.7-.017-4.047-.023-.658,0-.846-.182-.847-.833q-.007-5.182,0-10.365C277.355,30.846,277.607,30.683,278.545,30.84Z"
            transform="translate(0 -13.148)" />
        <path
            d="M302.329,27.178c-1.547-.922-3.155-.383-4.742-.543V15.876a8.027,8.027,0,0,1,4.194.663.977.977,0,0,1,.561.974C302.317,20.7,302.329,23.884,302.329,27.178Z"
            transform="translate(-17.753 -0.063)" />
        <path
            d="M350.989,15.85V26.558c-1.573.205-3.209-.393-4.732.551-.012-.266-.029-.459-.029-.652,0-2.982.016-5.963-.017-8.944a1.1,1.1,0,0,1,.668-1.1A7.924,7.924,0,0,1,350.989,15.85Z"
            transform="translate(-60.409 0)" />
    </g>
</svg>